<svg width="63" height="36" viewBox="0 0 63 36" fill="none" xmlns="http://www.w3.org/2000/svg">
<path d="M0 3.76945C0 1.95271 1.47276 0.47995 3.28949 0.47995H58.8706C60.6873 0.47995 62.1601 1.95271 62.1601 3.76944V32.7105C62.1601 34.5272 60.6873 36 58.8706 36H3.2895C1.47276 36 0 34.5272 0 32.7105V3.76945Z" fill="#FF695F"/>
<path d="M24.4954 26.1969L26.4746 23.7237L20.1033 18.627L26.4746 13.5303L24.4954 11.0572L16.5789 17.3905C16.3934 17.5388 16.2436 17.727 16.1407 17.941C16.0378 18.1551 15.9844 18.3895 15.9844 18.627C15.9844 18.8645 16.0378 19.099 16.1407 19.3131C16.2436 19.5271 16.3934 19.7153 16.5789 19.8636L24.4954 26.1969ZM39.1411 11.0572L37.1619 13.5303L43.5332 18.627L37.1619 23.7237L39.1411 26.1969L47.0577 19.8636C47.2432 19.7153 47.3929 19.5271 47.4958 19.3131C47.5987 19.099 47.6521 18.8645 47.6521 18.627C47.6521 18.3895 47.5987 18.1551 47.4958 17.941C47.3929 17.727 47.2432 17.5388 47.0577 17.3905L39.1411 11.0572ZM36.5302 4.7192L30.1969 33.2189L27.1047 32.5317L33.438 4.03204L36.5302 4.7192Z" fill="white"/>
</svg>
