<svg width="146" height="36" viewBox="0 0 146 36" fill="none" xmlns="http://www.w3.org/2000/svg">
<rect y="0.47995" width="62.1601" height="35.52" rx="3.28949" fill="#FF695F"/>
<path d="M24.4954 26.1969L26.4746 23.7237L20.1033 18.627L26.4746 13.5303L24.4954 11.0572L16.5789 17.3905C16.3934 17.5388 16.2436 17.727 16.1407 17.941C16.0378 18.1551 15.9844 18.3895 15.9844 18.627C15.9844 18.8645 16.0378 19.099 16.1407 19.3131C16.2436 19.5271 16.3934 19.7153 16.5789 19.8636L24.4954 26.1969ZM39.1411 11.0572L37.1619 13.5303L43.5332 18.627L37.1619 23.7237L39.1411 26.1969L47.0577 19.8636C47.2432 19.7153 47.3929 19.5271 47.4958 19.3131C47.5987 19.099 47.6521 18.8645 47.6521 18.627C47.6521 18.3895 47.5987 18.1551 47.4958 17.941C47.3929 17.727 47.2432 17.5388 47.0577 17.3905L39.1411 11.0572ZM36.5302 4.7192L30.1969 33.2189L27.1047 32.5317L33.438 4.03204L36.5302 4.7192Z" fill="white"/>
<path d="M71.3096 26.256L66.1756 8.31332H70.3196L73.2896 20.7803H73.4386L76.7152 8.31332H80.2635L83.5313 20.8066H83.689L86.659 8.31332H90.803L85.669 26.256H81.9719L78.555 14.5249H78.4149L75.0068 26.256H71.3096ZM97.3979 26.5188C96.037 26.5188 94.8601 26.2297 93.8672 25.6515C92.8801 25.0674 92.1179 24.2556 91.5806 23.2159C91.0432 22.1704 90.7746 20.9585 90.7746 19.5801C90.7746 18.19 91.0432 16.9751 91.5806 15.9355C92.1179 14.89 92.8801 14.0781 93.8672 13.4999C94.8601 12.9158 96.037 12.6238 97.3979 12.6238C98.7588 12.6238 99.9328 12.9158 100.92 13.4999C101.913 14.0781 102.678 14.89 103.215 15.9355C103.753 16.9751 104.021 18.19 104.021 19.5801C104.021 20.9585 103.753 22.1704 103.215 23.2159C102.678 24.2556 101.913 25.0674 100.92 25.6515C99.9328 26.2297 98.7588 26.5188 97.3979 26.5188ZM97.4155 23.6277C98.0346 23.6277 98.5515 23.4525 98.9662 23.102C99.3809 22.7457 99.6933 22.261 99.9036 21.6477C100.12 21.0344 100.228 20.3364 100.228 19.5538C100.228 18.7711 100.12 18.0732 99.9036 17.4599C99.6933 16.8466 99.3809 16.3618 98.9662 16.0056C98.5515 15.6493 98.0346 15.4711 97.4155 15.4711C96.7905 15.4711 96.2648 15.6493 95.8385 16.0056C95.4179 16.3618 95.0996 16.8466 94.8835 17.4599C94.6732 18.0732 94.5681 18.7711 94.5681 19.5538C94.5681 20.3364 94.6732 21.0344 94.8835 21.6477C95.0996 22.261 95.4179 22.7457 95.8385 23.102C96.2648 23.4525 96.7905 23.6277 97.4155 23.6277ZM113.685 12.799V15.6025H105.379V12.799H113.685ZM107.28 26.256V11.8265C107.28 10.8511 107.47 10.0422 107.85 9.3997C108.235 8.75722 108.761 8.27536 109.427 7.95412C110.093 7.63288 110.849 7.47226 111.696 7.47226C112.268 7.47226 112.791 7.51607 113.264 7.60368C113.743 7.69129 114.099 7.77014 114.333 7.84023L113.667 10.6438C113.521 10.597 113.34 10.5532 113.124 10.5124C112.914 10.4715 112.698 10.451 112.476 10.451C111.927 10.451 111.544 10.5795 111.328 10.8365C111.112 11.0877 111.004 11.441 111.004 11.8966V26.256H107.28ZM123.123 12.799V15.6025H115.019V12.799H123.123ZM116.858 9.57492H120.591V22.1208C120.591 22.4654 120.643 22.7341 120.748 22.9268C120.854 23.1137 121 23.2451 121.186 23.3211C121.379 23.397 121.601 23.4349 121.852 23.4349C122.028 23.4349 122.203 23.4203 122.378 23.3911C122.553 23.3561 122.688 23.3298 122.781 23.3123L123.368 26.0896C123.181 26.148 122.918 26.2151 122.579 26.2911C122.241 26.3728 121.829 26.4225 121.344 26.44C120.445 26.475 119.656 26.3553 118.979 26.0808C118.307 25.8063 117.784 25.3799 117.41 24.8017C117.037 24.2234 116.853 23.4934 116.858 22.6114V9.57492ZM129.391 26.5101C128.533 26.5101 127.767 26.3611 127.096 26.0633C126.424 25.7596 125.893 25.3127 125.501 24.7228C125.116 24.1271 124.923 23.3853 124.923 22.4975C124.923 21.7499 125.06 21.122 125.335 20.6139C125.609 20.1057 125.983 19.6969 126.456 19.3873C126.929 19.0778 127.467 18.8441 128.068 18.6864C128.676 18.5287 129.312 18.4178 129.978 18.3535C130.761 18.2718 131.392 18.1958 131.871 18.1257C132.35 18.0498 132.697 17.9388 132.913 17.7928C133.129 17.6468 133.237 17.4307 133.237 17.1445V17.0919C133.237 16.5371 133.062 16.1078 132.712 15.804C132.367 15.5003 131.876 15.3485 131.24 15.3485C130.568 15.3485 130.034 15.4974 129.637 15.7953C129.239 16.0873 128.977 16.4553 128.848 16.8992L125.396 16.6188C125.571 15.8011 125.916 15.0944 126.43 14.4986C126.944 13.8971 127.607 13.4356 128.419 13.1144C129.236 12.7873 130.183 12.6238 131.257 12.6238C132.005 12.6238 132.72 12.7114 133.404 12.8866C134.093 13.0618 134.703 13.3334 135.235 13.7014C135.772 14.0694 136.196 14.5425 136.505 15.1207C136.815 15.6931 136.97 16.3794 136.97 17.1795V26.256H133.43V24.3899H133.325C133.109 24.8104 132.82 25.1813 132.458 25.5026C132.095 25.818 131.66 26.0662 131.152 26.2473C130.644 26.4225 130.057 26.5101 129.391 26.5101ZM130.46 23.9343C131.009 23.9343 131.494 23.8263 131.914 23.6102C132.335 23.3882 132.665 23.0903 132.904 22.7165C133.144 22.3427 133.264 21.9193 133.264 21.4462V20.0181C133.147 20.0941 132.986 20.1641 132.782 20.2284C132.583 20.2868 132.358 20.3423 132.107 20.3949C131.856 20.4416 131.605 20.4854 131.354 20.5263C131.103 20.5613 130.875 20.5934 130.67 20.6226C130.232 20.6869 129.85 20.7891 129.523 20.9293C129.196 21.0695 128.941 21.2593 128.76 21.4987C128.579 21.7324 128.489 22.0244 128.489 22.3749C128.489 22.883 128.673 23.2714 129.041 23.5401C129.415 23.8029 129.888 23.9343 130.46 23.9343Z" fill="#03A4ED"/>
</svg>
